<mxfile host="65bd71144e">
    <diagram id="TL6u_ycea-2E-J7RbNCS" name="Page-1">
        <mxGraphModel dx="1896" dy="674" grid="1" gridSize="10" guides="1" tooltips="1" connect="1" arrows="1" fold="1" page="1" pageScale="1" pageWidth="850" pageHeight="1100" math="0" shadow="0">
            <root>
                <mxCell id="0"/>
                <mxCell id="1" parent="0"/>
                <mxCell id="32" value="" style="rounded=0;whiteSpace=wrap;html=1;" vertex="1" parent="1">
                    <mxGeometry x="735" y="420" width="225" height="140" as="geometry"/>
                </mxCell>
                <mxCell id="33" value="Loop for all 81 squares" style="rounded=0;whiteSpace=wrap;html=1;" vertex="1" parent="1">
                    <mxGeometry x="685" y="410" width="120" height="60" as="geometry"/>
                </mxCell>
                <mxCell id="10" value="" style="rounded=0;whiteSpace=wrap;html=1;" vertex="1" parent="1">
                    <mxGeometry x="120" y="200" width="320" height="80" as="geometry"/>
                </mxCell>
                <mxCell id="2" value="" style="line;strokeWidth=2;direction=south;html=1;" vertex="1" parent="1">
                    <mxGeometry x="196" y="120" width="10" height="480" as="geometry"/>
                </mxCell>
                <mxCell id="3" value="" style="line;strokeWidth=2;direction=south;html=1;" vertex="1" parent="1">
                    <mxGeometry x="356" y="120" width="10" height="480" as="geometry"/>
                </mxCell>
                <mxCell id="4" value="" style="line;strokeWidth=2;direction=south;html=1;" vertex="1" parent="1">
                    <mxGeometry x="517" y="120" width="10" height="480" as="geometry"/>
                </mxCell>
                <mxCell id="5" value="" style="line;strokeWidth=2;direction=south;html=1;" vertex="1" parent="1">
                    <mxGeometry x="675" y="120" width="10" height="480" as="geometry"/>
                </mxCell>
                <mxCell id="7" value="" style="endArrow=classic;html=1;" edge="1" parent="1">
                    <mxGeometry width="50" height="50" relative="1" as="geometry">
                        <mxPoint x="66" y="160" as="sourcePoint"/>
                        <mxPoint x="196" y="160" as="targetPoint"/>
                    </mxGeometry>
                </mxCell>
                <mxCell id="8" value="User starts program&lt;br&gt;There is a sudoku table stored in a file&amp;nbsp;" style="edgeLabel;html=1;align=center;verticalAlign=middle;resizable=0;points=[];" vertex="1" connectable="0" parent="7">
                    <mxGeometry x="-0.4308" y="1" relative="1" as="geometry">
                        <mxPoint x="-53" as="offset"/>
                    </mxGeometry>
                </mxCell>
                <mxCell id="9" value="main()" style="rounded=0;whiteSpace=wrap;html=1;" vertex="1" parent="1">
                    <mxGeometry x="141" y="60" width="120" height="60" as="geometry"/>
                </mxCell>
                <mxCell id="11" value="" style="endArrow=classic;html=1;entryX=0.213;entryY=0.6;entryDx=0;entryDy=0;entryPerimeter=0;exitX=0.217;exitY=0.5;exitDx=0;exitDy=0;exitPerimeter=0;" edge="1" parent="1" source="2" target="3">
                    <mxGeometry width="50" height="50" relative="1" as="geometry">
                        <mxPoint x="198" y="222" as="sourcePoint"/>
                        <mxPoint x="450" y="320" as="targetPoint"/>
                    </mxGeometry>
                </mxCell>
                <mxCell id="12" value="" style="endArrow=none;dashed=1;html=1;dashPattern=1 3;strokeWidth=2;entryX=0.285;entryY=0.7;entryDx=0;entryDy=0;entryPerimeter=0;" edge="1" parent="1" target="3">
                    <mxGeometry width="50" height="50" relative="1" as="geometry">
                        <mxPoint x="203" y="257" as="sourcePoint"/>
                        <mxPoint x="330" y="350" as="targetPoint"/>
                    </mxGeometry>
                </mxCell>
                <mxCell id="13" value="InitSquare()" style="rounded=0;whiteSpace=wrap;html=1;" vertex="1" parent="1">
                    <mxGeometry x="301" y="60" width="120" height="60" as="geometry"/>
                </mxCell>
                <mxCell id="14" value="Loop for all 81 squares" style="rounded=0;whiteSpace=wrap;html=1;" vertex="1" parent="1">
                    <mxGeometry x="70" y="190" width="120" height="60" as="geometry"/>
                </mxCell>
                <mxCell id="16" value="ImportDataFromFile()" style="rounded=0;whiteSpace=wrap;html=1;" vertex="1" parent="1">
                    <mxGeometry x="462" y="60" width="120" height="60" as="geometry"/>
                </mxCell>
                <mxCell id="17" value="" style="endArrow=classic;html=1;exitX=0.417;exitY=0.5;exitDx=0;exitDy=0;exitPerimeter=0;entryX=0.419;entryY=0.5;entryDx=0;entryDy=0;entryPerimeter=0;" edge="1" parent="1" source="2" target="4">
                    <mxGeometry width="50" height="50" relative="1" as="geometry">
                        <mxPoint x="400" y="370" as="sourcePoint"/>
                        <mxPoint x="450" y="320" as="targetPoint"/>
                    </mxGeometry>
                </mxCell>
                <mxCell id="23" value="" style="endArrow=none;dashed=1;html=1;dashPattern=1 3;strokeWidth=2;entryX=0.5;entryY=0.2;entryDx=0;entryDy=0;entryPerimeter=0;exitX=0.5;exitY=0.6;exitDx=0;exitDy=0;exitPerimeter=0;" edge="1" parent="1" source="2" target="4">
                    <mxGeometry width="50" height="50" relative="1" as="geometry">
                        <mxPoint x="400" y="370" as="sourcePoint"/>
                        <mxPoint x="450" y="320" as="targetPoint"/>
                    </mxGeometry>
                </mxCell>
                <mxCell id="24" value="PrintGrid()" style="rounded=0;whiteSpace=wrap;html=1;" vertex="1" parent="1">
                    <mxGeometry x="620" y="60" width="120" height="60" as="geometry"/>
                </mxCell>
                <mxCell id="25" value="" style="endArrow=classic;html=1;exitX=0.59;exitY=0.5;exitDx=0;exitDy=0;exitPerimeter=0;entryX=0.588;entryY=0.5;entryDx=0;entryDy=0;entryPerimeter=0;" edge="1" parent="1" source="2" target="5">
                    <mxGeometry width="50" height="50" relative="1" as="geometry">
                        <mxPoint x="400" y="370" as="sourcePoint"/>
                        <mxPoint x="450" y="320" as="targetPoint"/>
                    </mxGeometry>
                </mxCell>
                <mxCell id="38" value="Print imported table" style="edgeLabel;html=1;align=center;verticalAlign=middle;resizable=0;points=[];" vertex="1" connectable="0" parent="25">
                    <mxGeometry x="-0.0856" y="-1" relative="1" as="geometry">
                        <mxPoint as="offset"/>
                    </mxGeometry>
                </mxCell>
                <mxCell id="26" value="IdentifyPossibleValues()" style="rounded=0;whiteSpace=wrap;html=1;" vertex="1" parent="1">
                    <mxGeometry x="780" y="60" width="120" height="60" as="geometry"/>
                </mxCell>
                <mxCell id="27" value="" style="line;strokeWidth=2;direction=south;html=1;" vertex="1" parent="1">
                    <mxGeometry x="835" y="120" width="10" height="480" as="geometry"/>
                </mxCell>
                <mxCell id="28" value="" style="endArrow=classic;html=1;exitX=0.59;exitY=0.5;exitDx=0;exitDy=0;exitPerimeter=0;entryX=0.667;entryY=0.7;entryDx=0;entryDy=0;entryPerimeter=0;" edge="1" parent="1" target="27">
                    <mxGeometry width="50" height="50" relative="1" as="geometry">
                        <mxPoint x="200" y="440.9599999999998" as="sourcePoint"/>
                        <mxPoint x="679" y="439.9999999999998" as="targetPoint"/>
                    </mxGeometry>
                </mxCell>
                <mxCell id="39" value="Identify possible values" style="edgeLabel;html=1;align=center;verticalAlign=middle;resizable=0;points=[];" vertex="1" connectable="0" parent="28">
                    <mxGeometry x="-0.1097" y="1" relative="1" as="geometry">
                        <mxPoint as="offset"/>
                    </mxGeometry>
                </mxCell>
                <mxCell id="29" value="" style="endArrow=none;html=1;" edge="1" parent="1">
                    <mxGeometry width="50" height="50" relative="1" as="geometry">
                        <mxPoint x="835" y="440" as="sourcePoint"/>
                        <mxPoint x="920" y="440" as="targetPoint"/>
                    </mxGeometry>
                </mxCell>
                <mxCell id="30" value="" style="endArrow=classic;html=1;entryX=0.833;entryY=0.5;entryDx=0;entryDy=0;entryPerimeter=0;" edge="1" parent="1" target="27">
                    <mxGeometry width="50" height="50" relative="1" as="geometry">
                        <mxPoint x="920" y="520" as="sourcePoint"/>
                        <mxPoint x="700" y="320" as="targetPoint"/>
                    </mxGeometry>
                </mxCell>
                <mxCell id="31" value="" style="endArrow=none;html=1;" edge="1" parent="1">
                    <mxGeometry width="50" height="50" relative="1" as="geometry">
                        <mxPoint x="920" y="520" as="sourcePoint"/>
                        <mxPoint x="920" y="440" as="targetPoint"/>
                    </mxGeometry>
                </mxCell>
                <mxCell id="34" value="" style="endArrow=classic;html=1;exitX=0.417;exitY=0.5;exitDx=0;exitDy=0;exitPerimeter=0;entryX=0.917;entryY=0.8;entryDx=0;entryDy=0;entryPerimeter=0;" edge="1" parent="1" target="5">
                    <mxGeometry width="50" height="50" relative="1" as="geometry">
                        <mxPoint x="203" y="559.1599999999999" as="sourcePoint"/>
                        <mxPoint x="524" y="560.1199999999999" as="targetPoint"/>
                    </mxGeometry>
                </mxCell>
                <mxCell id="36" value="Print intermediate result" style="edgeLabel;html=1;align=center;verticalAlign=middle;resizable=0;points=[];" vertex="1" connectable="0" parent="34">
                    <mxGeometry x="0.1838" y="2" relative="1" as="geometry">
                        <mxPoint as="offset"/>
                    </mxGeometry>
                </mxCell>
                <mxCell id="35" value="" style="endArrow=none;dashed=1;html=1;dashPattern=1 3;strokeWidth=2;entryX=1;entryY=0.5;entryDx=0;entryDy=0;entryPerimeter=0;exitX=0.5;exitY=0.6;exitDx=0;exitDy=0;exitPerimeter=0;" edge="1" parent="1" target="5">
                    <mxGeometry width="50" height="50" relative="1" as="geometry">
                        <mxPoint x="202" y="599" as="sourcePoint"/>
                        <mxPoint x="527" y="599" as="targetPoint"/>
                    </mxGeometry>
                </mxCell>
            </root>
        </mxGraphModel>
    </diagram>
    <diagram id="x8LBo78AwftcPY7YCpwN" name="Page-2">
        <mxGraphModel dx="1046" dy="674" grid="1" gridSize="10" guides="1" tooltips="1" connect="1" arrows="1" fold="1" page="1" pageScale="1" pageWidth="850" pageHeight="1100" math="0" shadow="0">
            <root>
                <mxCell id="pBi45kAgoWLudoQ9g9ZU-0"/>
                <mxCell id="pBi45kAgoWLudoQ9g9ZU-1" parent="pBi45kAgoWLudoQ9g9ZU-0"/>
                <mxCell id="pBi45kAgoWLudoQ9g9ZU-2" value="" style="rhombus;whiteSpace=wrap;html=1;" vertex="1" parent="pBi45kAgoWLudoQ9g9ZU-1">
                    <mxGeometry x="360" y="450" width="80" height="80" as="geometry"/>
                </mxCell>
                <mxCell id="pBi45kAgoWLudoQ9g9ZU-3" value="" style="ellipse;shape=doubleEllipse;whiteSpace=wrap;html=1;aspect=fixed;" vertex="1" parent="pBi45kAgoWLudoQ9g9ZU-1">
                    <mxGeometry x="360" y="1000" width="80" height="80" as="geometry"/>
                </mxCell>
                <mxCell id="pBi45kAgoWLudoQ9g9ZU-4" value="" style="ellipse;whiteSpace=wrap;html=1;aspect=fixed;" vertex="1" parent="pBi45kAgoWLudoQ9g9ZU-1">
                    <mxGeometry x="380" y="40" width="40" height="40" as="geometry"/>
                </mxCell>
                <mxCell id="pBi45kAgoWLudoQ9g9ZU-5" value="Allocate global variables (grid of squares)" style="rounded=1;whiteSpace=wrap;html=1;" vertex="1" parent="pBi45kAgoWLudoQ9g9ZU-1">
                    <mxGeometry x="340" y="120" width="120" height="60" as="geometry"/>
                </mxCell>
                <mxCell id="pBi45kAgoWLudoQ9g9ZU-6" value="Initialize all squares" style="rounded=1;whiteSpace=wrap;html=1;" vertex="1" parent="pBi45kAgoWLudoQ9g9ZU-1">
                    <mxGeometry x="340" y="240" width="120" height="60" as="geometry"/>
                </mxCell>
                <mxCell id="pBi45kAgoWLudoQ9g9ZU-7" value="Import sudoku table" style="rounded=1;whiteSpace=wrap;html=1;" vertex="1" parent="pBi45kAgoWLudoQ9g9ZU-1">
                    <mxGeometry x="340" y="360" width="120" height="60" as="geometry"/>
                </mxCell>
                <mxCell id="pBi45kAgoWLudoQ9g9ZU-8" value="Print the imported table" style="rounded=1;whiteSpace=wrap;html=1;" vertex="1" parent="pBi45kAgoWLudoQ9g9ZU-1">
                    <mxGeometry x="340" y="560" width="120" height="60" as="geometry"/>
                </mxCell>
                <mxCell id="pBi45kAgoWLudoQ9g9ZU-9" value="" style="endArrow=classic;html=1;exitX=0;exitY=0.5;exitDx=0;exitDy=0;" edge="1" parent="pBi45kAgoWLudoQ9g9ZU-1" source="pBi45kAgoWLudoQ9g9ZU-2" target="pBi45kAgoWLudoQ9g9ZU-3">
                    <mxGeometry width="50" height="50" relative="1" as="geometry">
                        <mxPoint x="400" y="640" as="sourcePoint"/>
                        <mxPoint x="450" y="590" as="targetPoint"/>
                        <Array as="points">
                            <mxPoint x="240" y="490"/>
                            <mxPoint x="240" y="1040"/>
                        </Array>
                    </mxGeometry>
                </mxCell>
                <mxCell id="pBi45kAgoWLudoQ9g9ZU-10" value="Unable to import" style="edgeLabel;html=1;align=center;verticalAlign=middle;resizable=0;points=[];" vertex="1" connectable="0" parent="pBi45kAgoWLudoQ9g9ZU-9">
                    <mxGeometry x="-0.8916" y="-2" relative="1" as="geometry">
                        <mxPoint x="-5" y="-8" as="offset"/>
                    </mxGeometry>
                </mxCell>
                <mxCell id="pBi45kAgoWLudoQ9g9ZU-11" value="Identify possible values&lt;br&gt;and assign solved squares" style="rounded=1;whiteSpace=wrap;html=1;" vertex="1" parent="pBi45kAgoWLudoQ9g9ZU-1">
                    <mxGeometry x="340" y="680" width="120" height="110" as="geometry"/>
                </mxCell>
                <mxCell id="pBi45kAgoWLudoQ9g9ZU-12" value="" style="endArrow=classic;html=1;exitX=0.5;exitY=1;exitDx=0;exitDy=0;entryX=0.5;entryY=0;entryDx=0;entryDy=0;" edge="1" parent="pBi45kAgoWLudoQ9g9ZU-1" source="pBi45kAgoWLudoQ9g9ZU-4" target="pBi45kAgoWLudoQ9g9ZU-5">
                    <mxGeometry width="50" height="50" relative="1" as="geometry">
                        <mxPoint x="400" y="290" as="sourcePoint"/>
                        <mxPoint x="450" y="240" as="targetPoint"/>
                    </mxGeometry>
                </mxCell>
                <mxCell id="pBi45kAgoWLudoQ9g9ZU-14" value="" style="endArrow=classic;html=1;" edge="1" parent="pBi45kAgoWLudoQ9g9ZU-1" target="pBi45kAgoWLudoQ9g9ZU-8">
                    <mxGeometry width="50" height="50" relative="1" as="geometry">
                        <mxPoint x="400" y="530" as="sourcePoint"/>
                        <mxPoint x="450" y="240" as="targetPoint"/>
                    </mxGeometry>
                </mxCell>
                <mxCell id="pBi45kAgoWLudoQ9g9ZU-15" value="" style="endArrow=classic;html=1;exitX=0.5;exitY=1;exitDx=0;exitDy=0;entryX=0.5;entryY=0;entryDx=0;entryDy=0;" edge="1" parent="pBi45kAgoWLudoQ9g9ZU-1" source="pBi45kAgoWLudoQ9g9ZU-7" target="pBi45kAgoWLudoQ9g9ZU-2">
                    <mxGeometry width="50" height="50" relative="1" as="geometry">
                        <mxPoint x="400" y="290" as="sourcePoint"/>
                        <mxPoint x="450" y="240" as="targetPoint"/>
                    </mxGeometry>
                </mxCell>
                <mxCell id="pBi45kAgoWLudoQ9g9ZU-16" value="" style="endArrow=classic;html=1;exitX=0.5;exitY=1;exitDx=0;exitDy=0;entryX=0.5;entryY=0;entryDx=0;entryDy=0;" edge="1" parent="pBi45kAgoWLudoQ9g9ZU-1" source="pBi45kAgoWLudoQ9g9ZU-5" target="pBi45kAgoWLudoQ9g9ZU-6">
                    <mxGeometry width="50" height="50" relative="1" as="geometry">
                        <mxPoint x="400" y="290" as="sourcePoint"/>
                        <mxPoint x="450" y="240" as="targetPoint"/>
                    </mxGeometry>
                </mxCell>
                <mxCell id="pBi45kAgoWLudoQ9g9ZU-17" value="" style="endArrow=classic;html=1;entryX=0.5;entryY=0;entryDx=0;entryDy=0;" edge="1" parent="pBi45kAgoWLudoQ9g9ZU-1" target="pBi45kAgoWLudoQ9g9ZU-7">
                    <mxGeometry width="50" height="50" relative="1" as="geometry">
                        <mxPoint x="400" y="300" as="sourcePoint"/>
                        <mxPoint x="450" y="250" as="targetPoint"/>
                    </mxGeometry>
                </mxCell>
                <mxCell id="pBi45kAgoWLudoQ9g9ZU-18" value="" style="endArrow=classic;html=1;exitX=0.5;exitY=1;exitDx=0;exitDy=0;entryX=0.5;entryY=0;entryDx=0;entryDy=0;" edge="1" parent="pBi45kAgoWLudoQ9g9ZU-1" source="pBi45kAgoWLudoQ9g9ZU-11" target="pBi45kAgoWLudoQ9g9ZU-20">
                    <mxGeometry width="50" height="50" relative="1" as="geometry">
                        <mxPoint x="400" y="760" as="sourcePoint"/>
                        <mxPoint x="400" y="800" as="targetPoint"/>
                    </mxGeometry>
                </mxCell>
                <mxCell id="pBi45kAgoWLudoQ9g9ZU-19" value="" style="endArrow=classic;html=1;exitX=0.5;exitY=1;exitDx=0;exitDy=0;" edge="1" parent="pBi45kAgoWLudoQ9g9ZU-1" source="pBi45kAgoWLudoQ9g9ZU-8" target="pBi45kAgoWLudoQ9g9ZU-11">
                    <mxGeometry width="50" height="50" relative="1" as="geometry">
                        <mxPoint x="400" y="760" as="sourcePoint"/>
                        <mxPoint x="450" y="710" as="targetPoint"/>
                    </mxGeometry>
                </mxCell>
                <mxCell id="pBi45kAgoWLudoQ9g9ZU-20" value="[TEMP] Apply BF to remaining items." style="rounded=1;whiteSpace=wrap;html=1;" vertex="1" parent="pBi45kAgoWLudoQ9g9ZU-1">
                    <mxGeometry x="340" y="860" width="120" height="60" as="geometry"/>
                </mxCell>
                <mxCell id="pBi45kAgoWLudoQ9g9ZU-21" value="" style="endArrow=classic;html=1;exitX=0.5;exitY=1;exitDx=0;exitDy=0;entryX=0.5;entryY=0;entryDx=0;entryDy=0;" edge="1" parent="pBi45kAgoWLudoQ9g9ZU-1" source="pBi45kAgoWLudoQ9g9ZU-20" target="pBi45kAgoWLudoQ9g9ZU-3">
                    <mxGeometry width="50" height="50" relative="1" as="geometry">
                        <mxPoint x="400" y="900" as="sourcePoint"/>
                        <mxPoint x="450" y="850" as="targetPoint"/>
                    </mxGeometry>
                </mxCell>
            </root>
        </mxGraphModel>
    </diagram>
</mxfile>